<mxfile host="app.diagrams.net" agent="Mozilla/5.0 (Windows NT 10.0; Win64; x64) AppleWebKit/537.36 (KHTML, like Gecko) Chrome/133.0.0.0 Safari/537.36" version="26.1.0">
  <diagram name="Page-1" id="3wG9HtyBBPzCsZY93-jU">
    <mxGraphModel dx="794" dy="446" grid="1" gridSize="10" guides="1" tooltips="1" connect="1" arrows="1" fold="1" page="1" pageScale="1" pageWidth="850" pageHeight="1100" math="0" shadow="0">
      <root>
        <mxCell id="0" />
        <mxCell id="1" parent="0" />
        <mxCell id="SX_zq9q-Ki1Nj4x7sN1z-16" value="" style="ellipse;whiteSpace=wrap;html=1;align=center;aspect=fixed;fillColor=none;strokeColor=none;resizable=0;perimeter=centerPerimeter;rotatable=0;allowArrows=0;points=[];outlineConnect=1;" parent="1" vertex="1">
          <mxGeometry x="330" y="140" width="10" height="10" as="geometry" />
        </mxCell>
        <mxCell id="SX_zq9q-Ki1Nj4x7sN1z-17" value="" style="rounded=0;orthogonalLoop=1;jettySize=auto;html=1;endArrow=halfCircle;endFill=0;endSize=6;strokeWidth=1;sketch=0;fontSize=12;curved=1;exitX=0.5;exitY=0;exitDx=0;exitDy=0;" parent="1" source="SX_zq9q-Ki1Nj4x7sN1z-23" edge="1">
          <mxGeometry relative="1" as="geometry">
            <mxPoint x="359.5" y="220" as="sourcePoint" />
            <mxPoint x="359.5" y="170" as="targetPoint" />
            <Array as="points" />
          </mxGeometry>
        </mxCell>
        <mxCell id="SX_zq9q-Ki1Nj4x7sN1z-18" value="" style="ellipse;whiteSpace=wrap;html=1;align=center;aspect=fixed;fillColor=none;strokeColor=none;resizable=0;perimeter=centerPerimeter;rotatable=0;allowArrows=0;points=[];outlineConnect=1;" parent="1" vertex="1">
          <mxGeometry x="130" y="100" width="10" height="10" as="geometry" />
        </mxCell>
        <mxCell id="SX_zq9q-Ki1Nj4x7sN1z-19" value="users component" style="html=1;dropTarget=0;whiteSpace=wrap;" parent="1" vertex="1">
          <mxGeometry x="270" y="40" width="180" height="90" as="geometry" />
        </mxCell>
        <mxCell id="SX_zq9q-Ki1Nj4x7sN1z-20" value="" style="shape=module;jettyWidth=8;jettyHeight=4;" parent="SX_zq9q-Ki1Nj4x7sN1z-19" vertex="1">
          <mxGeometry x="1" width="20" height="20" relative="1" as="geometry">
            <mxPoint x="-27" y="7" as="offset" />
          </mxGeometry>
        </mxCell>
        <mxCell id="SX_zq9q-Ki1Nj4x7sN1z-23" value="Authentication Component" style="html=1;dropTarget=0;whiteSpace=wrap;" parent="1" vertex="1">
          <mxGeometry x="270" y="200" width="180" height="70" as="geometry" />
        </mxCell>
        <mxCell id="SX_zq9q-Ki1Nj4x7sN1z-24" value="" style="shape=module;jettyWidth=8;jettyHeight=4;" parent="SX_zq9q-Ki1Nj4x7sN1z-23" vertex="1">
          <mxGeometry x="1" width="20" height="20" relative="1" as="geometry">
            <mxPoint x="-27" y="7" as="offset" />
          </mxGeometry>
        </mxCell>
        <mxCell id="kF2uvTagpDHPHzTVeKfR-9" value="" style="html=1;rounded=0;" vertex="1" parent="1">
          <mxGeometry x="345" y="130" width="30" height="10" as="geometry" />
        </mxCell>
        <mxCell id="kF2uvTagpDHPHzTVeKfR-10" value="" style="endArrow=none;html=1;rounded=0;align=center;verticalAlign=top;endFill=0;labelBackgroundColor=none;endSize=2;" edge="1" source="kF2uvTagpDHPHzTVeKfR-9" target="kF2uvTagpDHPHzTVeKfR-11" parent="1">
          <mxGeometry relative="1" as="geometry" />
        </mxCell>
        <mxCell id="kF2uvTagpDHPHzTVeKfR-11" value="" style="ellipse;html=1;fontSize=11;align=center;fillColor=none;points=[];aspect=fixed;resizable=0;verticalAlign=bottom;labelPosition=center;verticalLabelPosition=top;flipH=1;" vertex="1" parent="1">
          <mxGeometry x="356" y="150" width="8" height="8" as="geometry" />
        </mxCell>
        <mxCell id="kF2uvTagpDHPHzTVeKfR-16" value="wallets" style="html=1;dropTarget=0;whiteSpace=wrap;" vertex="1" parent="1">
          <mxGeometry x="10" y="60" width="170" height="80" as="geometry" />
        </mxCell>
        <mxCell id="kF2uvTagpDHPHzTVeKfR-17" value="" style="shape=module;jettyWidth=8;jettyHeight=4;" vertex="1" parent="kF2uvTagpDHPHzTVeKfR-16">
          <mxGeometry x="1" width="20" height="20" relative="1" as="geometry">
            <mxPoint x="-27" y="7" as="offset" />
          </mxGeometry>
        </mxCell>
        <mxCell id="kF2uvTagpDHPHzTVeKfR-31" value="" style="ellipse;whiteSpace=wrap;html=1;align=center;aspect=fixed;fillColor=none;strokeColor=none;resizable=0;perimeter=centerPerimeter;rotatable=0;allowArrows=0;points=[];outlineConnect=1;" vertex="1" parent="1">
          <mxGeometry x="210" y="158" width="10" height="10" as="geometry" />
        </mxCell>
        <mxCell id="kF2uvTagpDHPHzTVeKfR-32" value="Transactions" style="html=1;dropTarget=0;whiteSpace=wrap;fontFamily=Helvetica;fontSize=12;fontColor=default;labelBackgroundColor=default;" vertex="1" parent="1">
          <mxGeometry x="27.5" y="180" width="135" height="70" as="geometry" />
        </mxCell>
        <mxCell id="kF2uvTagpDHPHzTVeKfR-33" value="" style="shape=module;jettyWidth=8;jettyHeight=4;fontFamily=Helvetica;fontSize=12;fontColor=default;labelBackgroundColor=default;" vertex="1" parent="kF2uvTagpDHPHzTVeKfR-32">
          <mxGeometry x="1" width="20" height="20" relative="1" as="geometry">
            <mxPoint x="-27" y="7" as="offset" />
          </mxGeometry>
        </mxCell>
        <mxCell id="kF2uvTagpDHPHzTVeKfR-36" value="" style="html=1;rounded=0;fontFamily=Helvetica;fontSize=12;fontColor=default;labelBackgroundColor=default;" vertex="1" parent="1">
          <mxGeometry x="80" y="170" width="30" height="10" as="geometry" />
        </mxCell>
        <mxCell id="kF2uvTagpDHPHzTVeKfR-37" value="" style="endArrow=none;html=1;rounded=0;align=center;verticalAlign=top;endFill=0;labelBackgroundColor=none;endSize=2;sketch=0;strokeColor=default;strokeWidth=1;fontFamily=Helvetica;fontSize=12;fontColor=default;curved=1;" edge="1" source="kF2uvTagpDHPHzTVeKfR-36" target="kF2uvTagpDHPHzTVeKfR-38" parent="1">
          <mxGeometry relative="1" as="geometry" />
        </mxCell>
        <mxCell id="kF2uvTagpDHPHzTVeKfR-38" value="" style="ellipse;html=1;fontSize=11;align=center;fillColor=none;points=[];aspect=fixed;resizable=0;verticalAlign=bottom;labelPosition=center;verticalLabelPosition=top;flipH=1;fontFamily=Helvetica;fontColor=default;labelBackgroundColor=default;direction=south;rotation=30;" vertex="1" parent="1">
          <mxGeometry x="91" y="158" width="8" height="8" as="geometry" />
        </mxCell>
        <mxCell id="kF2uvTagpDHPHzTVeKfR-39" value="" style="rounded=0;orthogonalLoop=1;jettySize=auto;html=1;endArrow=halfCircle;endFill=0;endSize=6;strokeWidth=1;sketch=0;fontSize=12;curved=1;strokeColor=default;align=center;verticalAlign=middle;fontFamily=Helvetica;fontColor=default;labelBackgroundColor=default;movable=1;resizable=1;rotatable=1;deletable=1;editable=1;locked=0;connectable=1;" edge="1" parent="1">
          <mxGeometry relative="1" as="geometry">
            <mxPoint x="94.5" y="122" as="sourcePoint" />
            <mxPoint x="94.5" y="158" as="targetPoint" />
            <Array as="points">
              <mxPoint x="94.5" y="142" />
            </Array>
          </mxGeometry>
        </mxCell>
        <mxCell id="kF2uvTagpDHPHzTVeKfR-40" value="" style="ellipse;whiteSpace=wrap;html=1;align=center;aspect=fixed;fillColor=none;strokeColor=none;resizable=0;perimeter=centerPerimeter;rotatable=0;allowArrows=0;points=[];outlineConnect=1;fontFamily=Helvetica;fontSize=12;fontColor=default;labelBackgroundColor=default;" vertex="1" parent="1">
          <mxGeometry x="210" y="170" width="10" height="10" as="geometry" />
        </mxCell>
        <mxCell id="kF2uvTagpDHPHzTVeKfR-41" value="" style="rounded=0;orthogonalLoop=1;jettySize=auto;html=1;endArrow=halfCircle;endFill=0;endSize=6;strokeWidth=1;sketch=0;fontSize=12;curved=1;strokeColor=default;align=center;verticalAlign=middle;fontFamily=Helvetica;fontColor=default;labelBackgroundColor=default;exitX=0.211;exitY=1.022;exitDx=0;exitDy=0;exitPerimeter=0;" edge="1" parent="1" source="SX_zq9q-Ki1Nj4x7sN1z-19">
          <mxGeometry relative="1" as="geometry">
            <mxPoint x="245" y="185" as="sourcePoint" />
            <mxPoint x="308" y="160" as="targetPoint" />
          </mxGeometry>
        </mxCell>
        <mxCell id="kF2uvTagpDHPHzTVeKfR-42" value="" style="ellipse;whiteSpace=wrap;html=1;align=center;aspect=fixed;fillColor=none;strokeColor=none;resizable=0;perimeter=centerPerimeter;rotatable=0;allowArrows=0;points=[];outlineConnect=1;fontFamily=Helvetica;fontSize=12;fontColor=default;labelBackgroundColor=default;" vertex="1" parent="1">
          <mxGeometry x="220" y="180" width="10" height="10" as="geometry" />
        </mxCell>
        <mxCell id="kF2uvTagpDHPHzTVeKfR-47" value="" style="html=1;rounded=0;fontFamily=Helvetica;fontSize=12;fontColor=default;labelBackgroundColor=default;" vertex="1" parent="1">
          <mxGeometry x="289" y="180" width="30" height="20" as="geometry" />
        </mxCell>
        <mxCell id="kF2uvTagpDHPHzTVeKfR-48" value="" style="endArrow=none;html=1;rounded=0;align=center;verticalAlign=top;endFill=0;labelBackgroundColor=none;endSize=2;sketch=0;strokeColor=default;strokeWidth=1;fontFamily=Helvetica;fontSize=12;fontColor=default;curved=1;" edge="1" source="kF2uvTagpDHPHzTVeKfR-47" target="kF2uvTagpDHPHzTVeKfR-49" parent="1">
          <mxGeometry relative="1" as="geometry" />
        </mxCell>
        <mxCell id="kF2uvTagpDHPHzTVeKfR-49" value="" style="ellipse;html=1;fontSize=11;align=center;fillColor=none;points=[];aspect=fixed;resizable=0;verticalAlign=bottom;labelPosition=center;verticalLabelPosition=top;flipH=1;fontFamily=Helvetica;fontColor=default;labelBackgroundColor=default;" vertex="1" parent="1">
          <mxGeometry x="300" y="168" width="8" height="8" as="geometry" />
        </mxCell>
        <mxCell id="kF2uvTagpDHPHzTVeKfR-55" style="edgeStyle=none;shape=connector;curved=1;rounded=0;sketch=0;orthogonalLoop=1;jettySize=auto;html=1;exitX=0.5;exitY=0;exitDx=0;exitDy=0;strokeColor=default;strokeWidth=1;align=center;verticalAlign=middle;fontFamily=Helvetica;fontSize=12;fontColor=default;labelBackgroundColor=default;endArrow=halfCircle;endFill=0;endSize=6;" edge="1" parent="1" source="kF2uvTagpDHPHzTVeKfR-47" target="kF2uvTagpDHPHzTVeKfR-47">
          <mxGeometry relative="1" as="geometry" />
        </mxCell>
        <mxCell id="kF2uvTagpDHPHzTVeKfR-56" value="" style="rounded=0;orthogonalLoop=1;jettySize=auto;html=1;endArrow=halfCircle;endFill=0;endSize=6;strokeWidth=1;sketch=0;fontSize=12;curved=1;strokeColor=default;align=center;verticalAlign=middle;fontFamily=Helvetica;fontColor=default;labelBackgroundColor=default;exitX=1.012;exitY=0.167;exitDx=0;exitDy=0;exitPerimeter=0;" edge="1" target="kF2uvTagpDHPHzTVeKfR-57" parent="1" source="kF2uvTagpDHPHzTVeKfR-16">
          <mxGeometry relative="1" as="geometry">
            <mxPoint x="190" y="75" as="sourcePoint" />
          </mxGeometry>
        </mxCell>
        <mxCell id="kF2uvTagpDHPHzTVeKfR-57" value="" style="ellipse;whiteSpace=wrap;html=1;align=center;aspect=fixed;fillColor=none;strokeColor=none;resizable=0;perimeter=centerPerimeter;rotatable=0;allowArrows=0;points=[];outlineConnect=1;fontFamily=Helvetica;fontSize=12;fontColor=default;labelBackgroundColor=default;" vertex="1" parent="1">
          <mxGeometry x="230" y="70" width="10" height="10" as="geometry" />
        </mxCell>
        <mxCell id="kF2uvTagpDHPHzTVeKfR-61" value="" style="html=1;rounded=0;fontFamily=Helvetica;fontSize=12;fontColor=default;labelBackgroundColor=default;" vertex="1" parent="1">
          <mxGeometry x="251" y="70" width="30" height="30" as="geometry" />
        </mxCell>
        <mxCell id="kF2uvTagpDHPHzTVeKfR-62" value="" style="endArrow=none;html=1;rounded=0;align=center;verticalAlign=top;endFill=0;labelBackgroundColor=none;endSize=2;sketch=0;strokeColor=default;strokeWidth=1;fontFamily=Helvetica;fontSize=12;fontColor=default;curved=1;" edge="1" source="kF2uvTagpDHPHzTVeKfR-61" target="kF2uvTagpDHPHzTVeKfR-63" parent="1">
          <mxGeometry relative="1" as="geometry" />
        </mxCell>
        <mxCell id="kF2uvTagpDHPHzTVeKfR-63" value="" style="ellipse;html=1;fontSize=11;align=center;fillColor=none;points=[];aspect=fixed;resizable=0;verticalAlign=bottom;labelPosition=center;verticalLabelPosition=top;flipH=1;fontFamily=Helvetica;fontColor=default;labelBackgroundColor=default;" vertex="1" parent="1">
          <mxGeometry x="232" y="72" width="8" height="8" as="geometry" />
        </mxCell>
      </root>
    </mxGraphModel>
  </diagram>
</mxfile>
